<svg width="40" height="40" viewBox="0 0 40 40" fill="none" xmlns="http://www.w3.org/2000/svg">
<g clip-path="url(#clip0_49_108)">
<path d="M6.76153 26.7326C5.87731 26.7479 4.99891 26.5867 4.17757 26.2586C3.35623 25.9304 2.6084 25.4418 1.97771 24.8212C1.34701 24.2007 0.84608 23.4607 0.504137 22.6443C0.162193 21.8279 -0.013916 20.9515 -0.013916 20.0663C-0.013916 19.181 0.162193 18.3047 0.504137 17.4883C0.84608 16.6719 1.34701 15.9319 1.97771 15.3113C2.6084 14.6908 3.35623 14.2022 4.17757 13.874C4.99891 13.5458 5.87731 13.3847 6.76153 13.3999H20.0967C21.8632 13.3999 23.5574 14.1024 24.8065 15.3528C26.0556 16.6031 26.7574 18.299 26.7574 20.0673V33.4019C26.7273 35.1506 26.0122 36.8174 24.7662 38.0434C23.5201 39.2693 21.8429 39.9563 20.0957 39.9563C18.3486 39.9563 16.6713 39.2693 15.4253 38.0434C14.1793 36.8174 13.4642 35.1506 13.4341 33.4019C13.4346 32.5261 13.2627 31.6588 12.9282 30.8495C12.5936 30.0403 12.1031 29.3049 11.4845 28.6856C10.8659 28.0662 10.1314 27.5749 9.32309 27.2398C8.51474 26.9047 7.64833 26.7324 6.7734 26.7326H6.76153Z" fill="#00DE9C"/>
<path d="M33.3843 26.7327C35.1508 26.7327 36.845 26.0303 38.0941 24.7799C39.3432 23.5295 40.045 21.8337 40.045 20.0654C40.045 18.2971 39.3432 16.6013 38.0941 15.3509C36.845 14.1005 35.1508 13.3981 33.3843 13.3981H33.4061C32.5315 13.3983 31.6654 13.2261 30.8573 12.8913C30.0492 12.5564 29.3149 12.0655 28.6964 11.4465C28.0779 10.8276 27.5872 10.0927 27.2525 9.2839C26.9177 8.47509 26.7454 7.6082 26.7454 6.73273C26.7454 4.96444 26.0437 3.26858 24.7945 2.01821C23.5454 0.767847 21.8513 0.0653992 20.0847 0.0653992C18.3182 0.0653992 16.6241 0.767847 15.3749 2.01821C14.1258 3.26858 13.4241 4.96444 13.4241 6.73273V15.9406C13.4241 16.4818 13.5306 17.0176 13.7374 17.5176C13.9443 18.0176 14.2476 18.4718 14.6298 18.8545C15.0121 19.2371 15.4659 19.5407 15.9654 19.7478C16.4648 19.9549 17.0001 20.0614 17.5407 20.0614H18.0155C18.2857 20.0614 18.5532 20.1147 18.8028 20.2182C19.0524 20.3217 19.2792 20.4734 19.4703 20.6646C19.6613 20.8559 19.8129 21.0829 19.9163 21.3327C20.0197 21.5826 20.0729 21.8504 20.0729 22.1208V22.604C20.0718 23.1455 20.1774 23.6819 20.3836 24.1825C20.5898 24.6831 20.8925 25.1381 21.2744 25.5216C21.6564 25.905 22.1101 26.2093 22.6096 26.4172C23.1091 26.625 23.6446 26.7322 24.1856 26.7327H33.3843Z" fill="#049CFB"/>
<path d="M26.7573 20.0733C26.7573 18.305 26.0555 16.6092 24.8064 15.3588C23.5573 14.1084 21.8631 13.406 20.0966 13.406H13.4241V15.9505C13.4241 17.0434 13.8578 18.0916 14.6298 18.8644C15.4018 19.6372 16.4489 20.0713 17.5407 20.0713H18.0155C18.2857 20.0713 18.5532 20.1246 18.8028 20.2281C19.0524 20.3316 19.2792 20.4833 19.4703 20.6745C19.6613 20.8657 19.8129 21.0928 19.9163 21.3426C20.0197 21.5925 20.0729 21.8603 20.0729 22.1307V22.6139C20.0734 23.7058 20.5068 24.7528 21.2779 25.5251C22.049 26.2973 23.0948 26.7317 24.1856 26.7327H26.7573V20.0733Z" fill="#5449D6"/>
</g>
<defs>
<clipPath id="clip0_49_108">
<rect width="40" height="40" fill="white"/>
</clipPath>
</defs>
</svg>
